<svg xmlns="http://www.w3.org/2000/svg" width="211.5" height="211.5" viewBox="0 0 211.5 211.5">
  <g id="Group_4187" data-name="Group 4187" transform="translate(370.5 -0.5)">
    <path id="Path_3809" data-name="Path 3809" d="M-264.749.5A105.751,105.751,0,0,1-159,106.25,105.751,105.751,0,0,1-264.75,212,105.75,105.75,0,0,1-370.5,106.25,105.75,105.75,0,0,1-264.749.5Z" fill="#1a2230"/>
    <g id="Group_4185" data-name="Group 4185">
      <path id="Path_3810" data-name="Path 3810" d="M-197.439,171.615c-.6-.915-1.287-1.907-2.065-2.955s-1.645-2.155-2.608-3.3-2.024-2.326-3.184-3.527a71.1,71.1,0,0,0-5.924-5.47,72.457,72.457,0,0,0-10.2-7.026q-2.815-1.6-5.98-3.055c-.062-.028-.118-.059-.18-.087-9.792-4.44-22.106-7.529-37.416-7.529s-27.624,3.089-37.416,7.529c-.338.153-.653.318-.985.474q-2.146,1.011-4.128,2.1-1.074.59-2.1,1.2a72.587,72.587,0,0,0-9.15,6.4,71.244,71.244,0,0,0-5.924,5.47c-1.161,1.2-2.22,2.384-3.184,3.527s-1.832,2.25-2.609,3.3-1.464,2.04-2.065,2.955c-.557.848-1.033,1.622-1.447,2.324-.033.056-.073.119-.1.174-.435.744-.79,1.392-1.07,1.926-.559,1.068-.818,1.678-.818,1.678v.4A101.014,101.014,0,0,0-265.056,207.1,101.012,101.012,0,0,0-194,178v-.289a36.654,36.654,0,0,0-1.992-3.778C-196.406,173.238-196.883,172.463-197.439,171.615Z" fill="#5b6c89"/>
      <path id="Path_3811" data-name="Path 3811" d="M-265,125.5a39.875,39.875,0,0,0,7.68-.737q1.851-.363,3.624-.9a37.123,37.123,0,0,0,5.12-1.958,36.307,36.307,0,0,0,6.15-3.67,35.924,35.924,0,0,0,7.509-7.509q1.059-1.431,1.98-2.971a36.558,36.558,0,0,0,2.422-4.84q.693-1.685,1.226-3.458.266-.886.49-1.792.448-1.812.725-3.7a40.276,40.276,0,0,0,.417-5.811,40.266,40.266,0,0,0-.417-5.811q-.276-1.887-.725-3.7-.225-.906-.49-1.793-.531-1.771-1.226-3.458a36.68,36.68,0,0,0-2.422-4.84q-.92-1.539-1.98-2.971a35.924,35.924,0,0,0-7.509-7.509,36.346,36.346,0,0,0-6.15-3.67,37.124,37.124,0,0,0-5.12-1.958q-1.771-.532-3.624-.9a39.875,39.875,0,0,0-7.68-.737c-21.162,0-37.345,16.183-37.345,37.345S-286.16,125.5-265,125.5Z" fill="#5b6c89"/>
    </g>
  </g>
</svg>
