<svg xmlns="http://www.w3.org/2000/svg" width="326.446" height="334.867" viewBox="0 0 326.446 334.867">
  <g id="Group_2450" data-name="Group 2450" transform="translate(8460 15675.623)">
    <path id="Path_3779" data-name="Path 3779" d="M94.113,38.57l109.052,65.237-121.5,79.5-54.122-7.349Z" transform="translate(-8336.719 -15524.063)" fill="#021433" opacity="0.17"/>
    <g id="Group_2778" data-name="Group 2778" transform="translate(-8460 -15514.926)">
      <g id="Group_2777" data-name="Group 2777">
        <g id="Group_2774" data-name="Group 2774" transform="translate(150.665 86.986)">
          <path id="Path_4946" data-name="Path 4946" d="M409.486,208.013l123.183-71.587-.023,8.352L409.463,216.366Z" transform="translate(-409.463 -136.426)" fill="#a7b1ba"/>
        </g>
        <g id="Group_2775" data-name="Group 2775" transform="translate(0.023)">
          <path id="Path_4947" data-name="Path 4947" d="M358.754,178.731l123.183-71.586L632.6,194.131,509.419,265.718Z" transform="translate(-358.754 -107.145)" fill="#e4ecf5"/>
        </g>
        <g id="Group_2776" data-name="Group 2776" transform="translate(0 71.586)">
          <path id="Path_4948" data-name="Path 4948" d="M509.434,218.229l-.023,8.352L358.746,139.6l.023-8.354Z" transform="translate(-358.746 -131.242)" fill="#bfc9d3"/>
        </g>
      </g>
    </g>
    <g id="Group_2813" data-name="Group 2813" transform="translate(-8431.582 -15652.667)">
      <g id="Group_2812" data-name="Group 2812">
        <g id="Group_2809" data-name="Group 2809" transform="translate(124.581 71.928)">
          <path id="Path_4971" data-name="Path 4971" d="M410.812,109.831l93.258-54.2-.578,155.691-93.258,51.991Z" transform="translate(-410.249 -55.634)" fill="#a7b1ba"/>
        </g>
        <g id="Group_2810" data-name="Group 2810" transform="translate(0.563)">
          <path id="Path_4972" data-name="Path 4972" d="M368.5,85.618l93.258-54.2L586.341,103.35l-93.258,54.2Z" transform="translate(-368.502 -31.422)" fill="#e4ecf5"/>
        </g>
        <g id="Group_2811" data-name="Group 2811" transform="translate(0 54.197)">
          <path id="Path_4973" data-name="Path 4973" d="M493.456,121.593,492.893,270l-124.58-71.928.563-148.406Z" transform="translate(-368.313 -49.665)" fill="#666c71"/>
        </g>
      </g>
    </g>
    <g id="Group_2814" data-name="Group 2814" transform="translate(-8426.941 -15589.813)">
      <path id="Path_4974" data-name="Path 4974" d="M485.74,119.174,485.25,262.1,369.907,195.5l.487-142.924Z" transform="translate(-369.874 -52.58)" fill="#2f5597"/>
    </g>
    <g id="Group_2902" data-name="Group 2902" transform="translate(-8432.701 -15598.471)">
      <g id="Group_2901" data-name="Group 2901">
        <g id="Group_2823" data-name="Group 2823" transform="translate(4.756 141.371)">
          <path id="Path_4983" data-name="Path 4983" d="M369.568,97.886l1.088-.632-.032,10.97-1.088.632Z" transform="translate(-369.536 -97.254)" fill="#a7b1ba"/>
        </g>
        <g id="Group_2824" data-name="Group 2824" transform="translate(4.756 152.341)">
          <path id="Path_4984" data-name="Path 4984" d="M369.536,101.579l1.088-.632,16.461,9.5-1.088.632Z" transform="translate(-369.536 -100.947)" fill="#e4ecf5"/>
        </g>
        <g id="Group_2826" data-name="Group 2826" transform="translate(4.794 128.072)">
          <path id="Path_4986" data-name="Path 4986" d="M369.581,93.41l1.088-.632-.032,10.969-1.088.632Z" transform="translate(-369.549 -92.777)" fill="#a7b1ba"/>
        </g>
        <g id="Group_2827" data-name="Group 2827" transform="translate(4.794 139.041)">
          <path id="Path_4987" data-name="Path 4987" d="M369.549,97.1l1.088-.632,16.461,9.5-1.088.632Z" transform="translate(-369.549 -96.47)" fill="#e4ecf5"/>
        </g>
        <g id="Group_2828" data-name="Group 2828" transform="translate(25.766 153.5)">
          <path id="Path_4988" data-name="Path 4988" d="M376.638,101.969l1.088-.632-.029,10.969-1.088.632Z" transform="translate(-376.608 -101.337)" fill="#a7b1ba"/>
        </g>
        <g id="Group_2829" data-name="Group 2829" transform="translate(4.832 114.773)">
          <path id="Path_4989" data-name="Path 4989" d="M369.594,88.933l1.088-.632-.032,10.97-1.088.632Z" transform="translate(-369.562 -88.3)" fill="#a7b1ba"/>
        </g>
        <g id="Group_2830" data-name="Group 2830" transform="translate(4.832 125.743)">
          <path id="Path_4990" data-name="Path 4990" d="M369.562,92.626l1.088-.632,16.461,9.5-1.088.632Z" transform="translate(-369.562 -91.993)" fill="#e4ecf5"/>
        </g>
        <g id="Group_2831" data-name="Group 2831" transform="translate(25.804 140.2)">
          <path id="Path_4991" data-name="Path 4991" d="M376.65,97.492l1.088-.632-.029,10.97-1.088.632Z" transform="translate(-376.621 -96.86)" fill="#a7b1ba"/>
        </g>
        <g id="Group_2832" data-name="Group 2832" transform="translate(4.87 101.456)">
          <path id="Path_4992" data-name="Path 4992" d="M369.606,84.45l1.088-.632L370.662,94.8l-1.088.632Z" transform="translate(-369.574 -83.818)" fill="#a7b1ba"/>
        </g>
        <g id="Group_2833" data-name="Group 2833" transform="translate(4.87 112.443)">
          <path id="Path_4993" data-name="Path 4993" d="M369.574,88.149l1.088-.632,16.461,9.5-1.088.632Z" transform="translate(-369.574 -87.516)" fill="#e4ecf5"/>
        </g>
        <g id="Group_2834" data-name="Group 2834" transform="translate(25.842 126.902)">
          <path id="Path_4994" data-name="Path 4994" d="M376.663,93.016l1.088-.632-.029,10.969-1.088.632Z" transform="translate(-376.634 -92.383)" fill="#a7b1ba"/>
        </g>
        <g id="Group_2835" data-name="Group 2835" transform="translate(4.907 88.158)">
          <path id="Path_4995" data-name="Path 4995" d="M369.619,79.974l1.088-.632-.032,10.985-1.088.632Z" transform="translate(-369.587 -79.341)" fill="#a7b1ba"/>
        </g>
        <g id="Group_2837" data-name="Group 2837" transform="translate(4.907 99.143)">
          <path id="Path_4997" data-name="Path 4997" d="M369.587,83.671l1.088-.632,16.461,9.5-1.088.632Z" transform="translate(-369.587 -83.039)" fill="#e4ecf5"/>
        </g>
        <g id="Group_2838" data-name="Group 2838" transform="translate(25.879 113.586)">
          <path id="Path_4998" data-name="Path 4998" d="M376.676,88.533l1.088-.632-.029,10.987-1.088.631Z" transform="translate(-376.646 -87.901)" fill="#a7b1ba"/>
        </g>
        <g id="Group_2839" data-name="Group 2839" transform="translate(4.945 74.858)">
          <path id="Path_4999" data-name="Path 4999" d="M369.632,75.5l1.088-.632-.032,10.987-1.088.632Z" transform="translate(-369.6 -74.864)" fill="#a7b1ba"/>
        </g>
        <g id="Group_2842" data-name="Group 2842" transform="translate(4.945 85.844)">
          <path id="Path_5002" data-name="Path 5002" d="M369.6,79.195l1.088-.632,16.461,9.5-1.088.632Z" transform="translate(-369.6 -78.563)" fill="#e4ecf5"/>
        </g>
        <g id="Group_2843" data-name="Group 2843" transform="translate(25.917 100.286)">
          <path id="Path_5003" data-name="Path 5003" d="M376.688,84.056l1.088-.632-.029,10.986-1.088.632Z" transform="translate(-376.659 -83.424)" fill="#a7b1ba"/>
        </g>
        <g id="Group_2844" data-name="Group 2844" transform="translate(4.983 61.56)">
          <path id="Path_5004" data-name="Path 5004" d="M369.644,71.019l1.088-.631L370.7,81.356l-1.088.632Z" transform="translate(-369.612 -70.388)" fill="#a7b1ba"/>
        </g>
        <g id="Group_2848" data-name="Group 2848" transform="translate(4.983 72.528)">
          <path id="Path_5008" data-name="Path 5008" d="M369.612,74.712l1.088-.632,16.461,9.5-1.088.632Z" transform="translate(-369.612 -74.08)" fill="#e4ecf5"/>
        </g>
        <g id="Group_2849" data-name="Group 2849" transform="translate(25.955 86.987)">
          <path id="Path_5009" data-name="Path 5009" d="M376.7,79.58l1.088-.632-.029,10.985-1.088.632Z" transform="translate(-376.672 -78.947)" fill="#a7b1ba"/>
        </g>
        <g id="Group_2850" data-name="Group 2850" transform="translate(5.02 48.259)">
          <path id="Path_5010" data-name="Path 5010" d="M369.657,66.543l1.088-.632-.032,10.969-1.088.632Z" transform="translate(-369.625 -65.911)" fill="#a7b1ba"/>
        </g>
        <g id="Group_2852" data-name="Group 2852" transform="translate(25.766 164.469)">
          <path id="Path_5012" data-name="Path 5012" d="M376.608,105.662l1.088-.632,71.88,41.5-1.088.632Z" transform="translate(-376.608 -105.029)" fill="#e4ecf5"/>
        </g>
        <g id="Group_2854" data-name="Group 2854" transform="translate(5.02 59.228)">
          <path id="Path_5014" data-name="Path 5014" d="M369.625,70.235l1.088-.632,16.461,9.5-1.088.632Z" transform="translate(-369.625 -69.603)" fill="#e4ecf5"/>
        </g>
        <g id="Group_2855" data-name="Group 2855" transform="translate(25.992 73.687)">
          <path id="Path_5015" data-name="Path 5015" d="M376.713,75.1l1.088-.632-.029,10.971-1.088.632Z" transform="translate(-376.685 -74.47)" fill="#a7b1ba"/>
        </g>
        <g id="Group_2856" data-name="Group 2856" transform="translate(5.058 34.96)">
          <path id="Path_5016" data-name="Path 5016" d="M369.669,62.066l1.088-.632-.032,10.97-1.088.632Z" transform="translate(-369.638 -61.434)" fill="#a7b1ba"/>
        </g>
        <g id="Group_2858" data-name="Group 2858" transform="translate(25.804 151.171)">
          <path id="Path_5018" data-name="Path 5018" d="M376.621,101.185l1.088-.632,71.88,41.5-1.088.632Z" transform="translate(-376.621 -100.553)" fill="#e4ecf5"/>
        </g>
        <g id="Group_2859" data-name="Group 2859" transform="translate(102.192 197.626)">
          <path id="Path_5019" data-name="Path 5019" d="M402.367,116.823l1.088-.632-.032,10.971-1.088.631Z" transform="translate(-402.335 -116.19)" fill="#a7b1ba"/>
        </g>
        <g id="Group_2860" data-name="Group 2860" transform="translate(5.058 45.93)">
          <path id="Path_5020" data-name="Path 5020" d="M369.638,65.759l1.088-.632,16.461,9.5-1.088.632Z" transform="translate(-369.638 -65.126)" fill="#e4ecf5"/>
        </g>
        <g id="Group_2861" data-name="Group 2861" transform="translate(26.03 60.389)">
          <path id="Path_5021" data-name="Path 5021" d="M376.726,70.626l1.088-.632-.029,10.969L376.7,81.6Z" transform="translate(-376.697 -69.994)" fill="#a7b1ba"/>
        </g>
        <g id="Group_2862" data-name="Group 2862" transform="translate(5.096 21.661)">
          <path id="Path_5022" data-name="Path 5022" d="M369.682,57.589l1.088-.632-.032,10.969-1.088.632Z" transform="translate(-369.65 -56.957)" fill="#a7b1ba"/>
        </g>
        <g id="Group_2863" data-name="Group 2863" transform="translate(102.192 208.596)">
          <path id="Path_5023" data-name="Path 5023" d="M402.335,120.514l1.088-.631,17.911,10.339-1.088.632Z" transform="translate(-402.335 -119.883)" fill="#e4ecf5"/>
        </g>
        <g id="Group_2864" data-name="Group 2864" transform="translate(25.842 137.871)">
          <path id="Path_5024" data-name="Path 5024" d="M376.634,96.708l1.088-.632,71.88,41.5-1.088.632Z" transform="translate(-376.634 -96.076)" fill="#e4ecf5"/>
        </g>
        <g id="Group_2865" data-name="Group 2865" transform="translate(102.23 184.327)">
          <path id="Path_5025" data-name="Path 5025" d="M402.379,112.346l1.088-.632-.032,10.969-1.088.632Z" transform="translate(-402.348 -111.714)" fill="#a7b1ba"/>
        </g>
        <g id="Group_2866" data-name="Group 2866" transform="translate(5.096 32.63)">
          <path id="Path_5026" data-name="Path 5026" d="M369.65,61.282l1.088-.632,16.461,9.5-1.088.632Z" transform="translate(-369.65 -60.649)" fill="#e4ecf5"/>
        </g>
        <g id="Group_2867" data-name="Group 2867" transform="translate(26.068 47.089)">
          <path id="Path_5027" data-name="Path 5027" d="M376.739,66.149l1.088-.632L377.8,76.486l-1.088.632Z" transform="translate(-376.71 -65.517)" fill="#a7b1ba"/>
        </g>
        <g id="Group_2868" data-name="Group 2868" transform="translate(5.134 8.345)">
          <path id="Path_5028" data-name="Path 5028" d="M369.7,53.107l1.088-.632-.032,10.986-1.088.632Z" transform="translate(-369.663 -52.475)" fill="#a7b1ba"/>
        </g>
        <g id="Group_2869" data-name="Group 2869" transform="translate(102.23 195.296)">
          <path id="Path_5029" data-name="Path 5029" d="M402.348,116.039l1.088-.632,17.911,10.341-1.088.631Z" transform="translate(-402.348 -115.406)" fill="#e4ecf5"/>
        </g>
        <g id="Group_2870" data-name="Group 2870" transform="translate(25.879 124.572)">
          <path id="Path_5030" data-name="Path 5030" d="M376.646,92.23l1.088-.631,71.88,41.5-1.088.632Z" transform="translate(-376.646 -91.599)" fill="#e4ecf5"/>
        </g>
        <g id="Group_2871" data-name="Group 2871" transform="translate(102.268 171.027)">
          <path id="Path_5031" data-name="Path 5031" d="M402.392,107.869l1.088-.632-.032,10.969-1.088.632Z" transform="translate(-402.36 -107.237)" fill="#a7b1ba"/>
        </g>
        <g id="Group_2872" data-name="Group 2872" transform="translate(5.134 19.331)">
          <path id="Path_5032" data-name="Path 5032" d="M369.663,56.805l1.088-.632,16.461,9.5-1.088.632Z" transform="translate(-369.663 -56.173)" fill="#e4ecf5"/>
        </g>
        <g id="Group_2873" data-name="Group 2873" transform="translate(26.106 33.789)">
          <path id="Path_5033" data-name="Path 5033" d="M376.752,61.672l1.088-.632-.029,10.971-1.088.632Z" transform="translate(-376.723 -61.039)" fill="#a7b1ba"/>
        </g>
        <g id="Group_2874" data-name="Group 2874" transform="translate(102.268 181.996)">
          <path id="Path_5034" data-name="Path 5034" d="M402.36,111.562l1.088-.632,17.912,10.34-1.088.632Z" transform="translate(-402.36 -110.929)" fill="#e4ecf5"/>
        </g>
        <g id="Group_2875" data-name="Group 2875" transform="translate(25.917 111.272)">
          <path id="Path_5035" data-name="Path 5035" d="M376.659,87.754l1.088-.632,71.88,41.5-1.088.633Z" transform="translate(-376.659 -87.122)" fill="#e4ecf5"/>
        </g>
        <g id="Group_2876" data-name="Group 2876" transform="translate(102.305 157.711)">
          <path id="Path_5036" data-name="Path 5036" d="M402.4,103.387l1.088-.632-.032,10.986-1.088.632Z" transform="translate(-402.373 -102.754)" fill="#a7b1ba"/>
        </g>
        <g id="Group_2877" data-name="Group 2877" transform="translate(26.143 20.474)">
          <path id="Path_5037" data-name="Path 5037" d="M376.764,57.189l1.088-.631-.029,10.985-1.088.632Z" transform="translate(-376.735 -56.558)" fill="#a7b1ba"/>
        </g>
        <g id="Group_2878" data-name="Group 2878" transform="translate(102.305 168.698)">
          <path id="Path_5038" data-name="Path 5038" d="M402.373,107.085l1.088-.632,17.911,10.34-1.088.633Z" transform="translate(-402.373 -106.453)" fill="#e4ecf5"/>
        </g>
        <g id="Group_2879" data-name="Group 2879" transform="translate(25.955 97.972)">
          <path id="Path_5039" data-name="Path 5039" d="M376.672,83.277l1.088-.632,71.88,41.5-1.088.632Z" transform="translate(-376.672 -82.645)" fill="#e4ecf5"/>
        </g>
        <g id="Group_2880" data-name="Group 2880" transform="translate(102.343 144.413)">
          <path id="Path_5040" data-name="Path 5040" d="M402.418,98.909l1.088-.631-.032,10.985-1.088.632Z" transform="translate(-402.386 -98.278)" fill="#a7b1ba"/>
        </g>
        <g id="Group_2881" data-name="Group 2881" transform="translate(102.343 155.398)">
          <path id="Path_5041" data-name="Path 5041" d="M402.386,102.608l1.088-.632,17.911,10.341-1.088.632Z" transform="translate(-402.386 -101.976)" fill="#e4ecf5"/>
        </g>
        <g id="Group_2882" data-name="Group 2882" transform="translate(25.992 84.658)">
          <path id="Path_5042" data-name="Path 5042" d="M376.685,78.8l1.088-.632,71.88,41.5-1.088.631Z" transform="translate(-376.685 -78.163)" fill="#e4ecf5"/>
        </g>
        <g id="Group_2883" data-name="Group 2883" transform="translate(102.381 131.113)">
          <path id="Path_5043" data-name="Path 5043" d="M402.43,94.433l1.088-.632-.032,10.986-1.088.631Z" transform="translate(-402.398 -93.801)" fill="#a7b1ba"/>
        </g>
        <g id="Group_2884" data-name="Group 2884" transform="translate(102.381 142.099)">
          <path id="Path_5044" data-name="Path 5044" d="M402.4,98.13l1.088-.631,17.911,10.34-1.088.632Z" transform="translate(-402.398 -97.499)" fill="#e4ecf5"/>
        </g>
        <g id="Group_2885" data-name="Group 2885" transform="translate(26.03 71.358)">
          <path id="Path_5045" data-name="Path 5045" d="M376.7,74.318l1.088-.632,71.88,41.5-1.088.632Z" transform="translate(-376.697 -73.686)" fill="#e4ecf5"/>
        </g>
        <g id="Group_2886" data-name="Group 2886" transform="translate(102.418 117.813)">
          <path id="Path_5046" data-name="Path 5046" d="M402.443,89.956l1.088-.632-.032,10.971-1.088.632Z" transform="translate(-402.411 -89.324)" fill="#a7b1ba"/>
        </g>
        <g id="Group_2887" data-name="Group 2887" transform="translate(102.418 128.783)">
          <path id="Path_5047" data-name="Path 5047" d="M402.411,93.649l1.088-.632,17.911,10.341-1.088.631Z" transform="translate(-402.411 -93.017)" fill="#e4ecf5"/>
        </g>
        <g id="Group_2888" data-name="Group 2888" transform="translate(26.068 58.058)">
          <path id="Path_5048" data-name="Path 5048" d="M376.71,69.841l1.088-.632,71.88,41.5-1.088.632Z" transform="translate(-376.71 -69.209)" fill="#e4ecf5"/>
        </g>
        <g id="Group_2889" data-name="Group 2889" transform="translate(102.456 104.514)">
          <path id="Path_5049" data-name="Path 5049" d="M402.456,85.48l1.088-.632-.032,10.969-1.088.632Z" transform="translate(-402.424 -84.847)" fill="#a7b1ba"/>
        </g>
        <g id="Group_2890" data-name="Group 2890" transform="translate(102.456 115.483)">
          <path id="Path_5050" data-name="Path 5050" d="M402.424,89.172l1.088-.632,17.911,10.341-1.088.632Z" transform="translate(-402.424 -88.54)" fill="#e4ecf5"/>
        </g>
        <g id="Group_2891" data-name="Group 2891" transform="translate(26.106 44.759)">
          <path id="Path_5051" data-name="Path 5051" d="M376.723,65.365l1.088-.632,71.88,41.5-1.088.632Z" transform="translate(-376.723 -64.732)" fill="#e4ecf5"/>
        </g>
        <g id="Group_2892" data-name="Group 2892" transform="translate(102.494 91.214)">
          <path id="Path_5052" data-name="Path 5052" d="M402.469,81l1.088-.632-.032,10.971-1.088.631Z" transform="translate(-402.437 -80.37)" fill="#a7b1ba"/>
        </g>
        <g id="Group_2893" data-name="Group 2893" transform="translate(102.494 102.185)">
          <path id="Path_5053" data-name="Path 5053" d="M402.437,84.694l1.088-.631L421.436,94.4l-1.088.632Z" transform="translate(-402.437 -84.063)" fill="#e4ecf5"/>
        </g>
        <g id="Group_2894" data-name="Group 2894" transform="translate(26.143 31.459)">
          <path id="Path_5054" data-name="Path 5054" d="M376.735,60.888l1.088-.632,71.88,41.5-1.088.632Z" transform="translate(-376.735 -60.255)" fill="#e4ecf5"/>
        </g>
        <g id="Group_2895" data-name="Group 2895" transform="translate(102.531 77.916)">
          <path id="Path_5055" data-name="Path 5055" d="M402.481,76.526l1.088-.632-.032,10.969-1.088.632Z" transform="translate(-402.449 -75.893)" fill="#a7b1ba"/>
        </g>
        <g id="Group_2896" data-name="Group 2896" transform="translate(102.531 88.885)">
          <path id="Path_5056" data-name="Path 5056" d="M402.449,80.218l1.088-.632,17.911,10.341-1.088.631Z" transform="translate(-402.449 -79.586)" fill="#e4ecf5"/>
        </g>
        <g id="Group_2897" data-name="Group 2897" transform="translate(102.569 64.6)">
          <path id="Path_5057" data-name="Path 5057" d="M402.494,72.044l1.088-.632L403.55,82.4l-1.088.632Z" transform="translate(-402.462 -71.411)" fill="#a7b1ba"/>
        </g>
        <g id="Group_2898" data-name="Group 2898" transform="translate(102.569 75.585)">
          <path id="Path_5058" data-name="Path 5058" d="M402.462,75.741l1.088-.632L421.461,85.45l-1.088.632Z" transform="translate(-402.462 -75.109)" fill="#e4ecf5"/>
        </g>
        <g id="Group_2899" data-name="Group 2899" transform="translate(0.564)">
          <path id="Path_5059" data-name="Path 5059" d="M368.125,50.3l1.088-.632L493.794,121.6l-1.088.632Z" transform="translate(-368.125 -49.665)" fill="#e4ecf5"/>
        </g>
        <path id="Path_5060" data-name="Path 5060" d="M368.5,49.878l-.564,153.393L492.518,275.2l.561-153.39ZM389.147,214.053Zm.006-2.332-16.461-9.5.033-10.971,16.461,9.5Zm.039-13.3-16.461-9.5.033-10.971,16.461,9.5Zm.036-13.3-16.461-9.5.033-10.971,16.461,9.5Zm.039-13.3-16.461-9.5.033-10.986,16.461,9.5Zm.039-13.3-16.461-9.5.033-10.986,16.461,9.5Zm.039-13.3-16.461-9.5.03-10.986,16.461,9.5Zm.036-13.315-16.461-9.5.033-10.971,16.461,9.5Zm.039-13.3-16.461-9.5.033-10.968,16.461,9.5Zm.039-13.3L373,95.806l.03-10.968,16.461,9.5Zm.036-13.3-16.461-9.5.033-10.968,16.461,9.5Zm.039-13.3-16.461-9.5.033-10.983,16.461,9.5ZM393.7,216.675l71.882,41.5Zm71.891,39.168-71.882-41.5.03-10.968,71.879,41.5Zm.036-13.3-71.879-41.5.03-10.971,71.879,41.5Zm.039-13.3-71.879-41.5.03-10.971,71.879,41.5Zm.039-13.3-71.882-41.5.03-10.986,71.879,41.5Zm.036-13.3-71.879-41.5.03-10.986,71.879,41.5Zm.039-13.3-71.879-41.5.03-10.986,71.879,41.5Zm.039-13.318-71.879-41.5.027-10.971,71.882,41.5Zm.039-13.3-71.882-41.5.03-10.971,71.879,41.5Zm.036-13.3L394,107.937l.03-10.968,71.879,41.5Zm.039-13.3-71.879-41.5.027-10.971,71.882,41.5Zm.039-13.3-71.882-41.5.03-10.986,71.88,41.5Zm22.067,145.991-17.91-10.341.033-10.971,17.91,10.341Zm.039-13.3-17.911-10.341.03-10.968,17.913,10.338Zm.039-13.3L470.2,231.875l.033-10.968,17.91,10.341Zm.036-13.3-17.91-10.338.033-10.989,17.91,10.341Zm.039-13.3-17.91-10.341.03-10.986,17.913,10.341Zm.039-13.3-17.913-10.341.033-10.983,17.91,10.341ZM488.263,189l-17.91-10.338.033-10.971,17.91,10.338Zm.039-13.3-17.91-10.341.033-10.968,17.91,10.341Zm.039-13.3-17.913-10.341.033-10.968,17.913,10.341Zm.036-13.3-17.91-10.338.033-10.971,17.91,10.341Zm.039-13.3L470.5,125.465l.033-10.986,17.911,10.341Z" transform="translate(-367.935 -49.247)" fill="#bfc9d3"/>
        <g id="Group_2900" data-name="Group 2900" transform="translate(124.583 71.928)">
          <path id="Path_5061" data-name="Path 5061" d="M410.457,74.366l1.131-.488-.58,153.482-1.131.489Z" transform="translate(-409.904 -73.878)" fill="#a7b1ba"/>
        </g>
      </g>
    </g>
    <g id="Group_2907" data-name="Group 2907" transform="translate(-8415.453 -15658.696)">
      <g id="Group_2906" data-name="Group 2906">
        <g id="Group_2903" data-name="Group 2903" transform="translate(104.488 60.326)">
          <path id="Path_5062" data-name="Path 5062" d="M408.963,94.863,486.68,49.7l-.049,17.62-77.717,45.164Z" transform="translate(-408.914 -49.699)" fill="#193c78"/>
        </g>
        <g id="Group_2904" data-name="Group 2904" transform="translate(0.049)">
          <path id="Path_5063" data-name="Path 5063" d="M373.758,74.555l77.714-45.162L555.963,89.718l-77.717,45.164Z" transform="translate(-373.758 -29.392)" fill="#285a6b"/>
        </g>
        <g id="Group_2905" data-name="Group 2905" transform="translate(0 45.162)">
          <path id="Path_5064" data-name="Path 5064" d="M478.279,104.923l-.049,17.62L373.741,62.214l.049-17.62Z" transform="translate(-373.741 -44.595)" fill="#2f5597"/>
        </g>
      </g>
    </g>
    <g id="Group_2912" data-name="Group 2912" transform="translate(-8425.521 -15675.62)">
      <g id="Group_2911" data-name="Group 2911">
        <g id="Group_2908" data-name="Group 2908" transform="translate(109.121 63.003)">
          <path id="Path_5065" data-name="Path 5065" d="M407.111,99.1l93.258-54.2-.023,9.1-93.261,54.2Z" transform="translate(-407.085 -44.903)" fill="#a7b1ba"/>
        </g>
        <g id="Group_2909" data-name="Group 2909" transform="translate(0.026)">
          <path id="Path_5066" data-name="Path 5066" d="M370.361,77.892l93.258-54.2,109.121,63-93.258,54.2Z" transform="translate(-370.361 -23.695)" fill="#e4ecf5"/>
        </g>
        <g id="Group_2910" data-name="Group 2910" transform="translate(0 54.196)">
          <path id="Path_5067" data-name="Path 5067" d="M479.5,104.94l-.026,9.093-109.121-63,.026-9.092Z" transform="translate(-370.352 -41.939)" fill="#bfc9d3"/>
        </g>
      </g>
    </g>
    <path id="Path_5067-2" data-name="Path 5067" d="M458.605,75.973l-.026,29.093L389.725,65.113l.026-29.092Z" transform="translate(-8775.936 -15674.727)" fill="#2f5597"/>
    <path id="Path_5067-3" data-name="Path 5067" d="M458.663,76.615l-.026,29.093-8.793,4.992.026-29.092Z" transform="translate(-8767.174 -15680.361)" fill="#193c78"/>
    <path id="Path_5067-4" data-name="Path 5067" d="M389.8,65.489l68.842,40.219-8.793,4.992L381,70.482Z" transform="translate(-8767.174 -15709.168)" fill="#587dbe"/>
    <path id="hotel" d="M9.487,35.42l-1.523-.97-.309-8.643L3.4,23.185l.321,8.563-1.474-.939L1.5,11.038l1.484.874L3.3,20.294l4.256,2.594-.3-8.46,1.533.9Zm9.544,6.415a9.474,9.474,0,0,1-3.39-4.936,26.077,26.077,0,0,1-1.471-8.157q-.162-4.909,1-7.094,1.169-2.2,3.357-.915,2.048,1.2,3.4,4.851a26.094,26.094,0,0,1,1.489,8.334q.148,5.06-1.057,7.176Q21.157,43.191,19.031,41.835ZM18.538,23.7q-1.323-.788-2.081.825a11.534,11.534,0,0,0-.643,5.02,20.85,20.85,0,0,0,.972,5.957,6.214,6.214,0,0,0,2.16,3.388,1.309,1.309,0,0,0,2.129-.6,11.523,11.523,0,0,0,.64-5.079,21.542,21.542,0,0,0-.959-6.2A5.847,5.847,0,0,0,18.538,23.7Zm16.027,9.794-2.972-1.771L32.059,49.8l-1.687-1.075L29.894,30.7l-2.9-1.73-.082-2.963,7.58,4.466ZM46.313,58.885l-6.03-3.842L39.8,33.612l5.834,3.438.061,3.078L41.65,37.714l.132,6.113L45.5,46.1l.061,3.037-3.716-2.291.137,6.335,4.269,2.692Zm12.175,7.758-6.274-4L51.832,40.7l1.879,1.107.314,18.962,4.417,2.785Z" transform="translate(-8381.123 -15641.589)" fill="#fff"/>
  </g>
</svg>
