<svg xmlns="http://www.w3.org/2000/svg" xmlns:xlink="http://www.w3.org/1999/xlink" width="95" height="79" viewBox="0 0 95 79">
  <defs>
    <filter id="Union_1" x="0" y="0" width="95" height="79" filterUnits="userSpaceOnUse">
      <feOffset dy="4" input="SourceAlpha"/>
      <feGaussianBlur stdDeviation="5" result="blur"/>
      <feFlood flood-opacity="0.161"/>
      <feComposite operator="in" in2="blur"/>
      <feComposite in="SourceGraphic"/>
    </filter>
  </defs>
  <g id="Group_4175" data-name="Group 4175" transform="translate(-166 -486)">
    <g id="Group_2101" data-name="Group 2101" transform="translate(-10.377 -17.812)">
      <circle id="Ellipse_10" data-name="Ellipse 10" cx="10" cy="10" r="10" transform="translate(214.377 562.812)" fill="#2f5597"/>
      <g transform="matrix(1, 0, 0, 1, 176.38, 503.81)" filter="url(#Union_1)">
        <path id="Union_1-2" data-name="Union 1" d="M23.375,34.708h18.25L32.5,49ZM8,34.708a8,8,0,0,1-8-8V8A8,8,0,0,1,8,0H57a8,8,0,0,1,8,8V26.708a8,8,0,0,1-8,8Z" transform="translate(15 11)" fill="#2f5597"/>
      </g>
      <text id="ME" transform="translate(208.377 539.812)" fill="#fff" font-size="22" font-family="Poppins-Bold, Poppins" font-weight="700"><tspan x="0" y="0">ME</tspan></text>
    </g>
  </g>
</svg>
